# xmcd
#
# Track frame offsets:
#	150
#	12303
#	24511
#	40523
#	53003
#	66382
#	80483
#	96361
#	113575
#	133199
#	147416
#
# Disc length: 2143 seconds
#
# Revision: 0
# Processed by: cddbd v1.5.2PL0 Copyright (c) Steve Scherf et al.
# Submitted via: SynApp - FreeCDDB Version: 2.4
#
DISCID=91085d0b
DTITLE=Mix - Datent_012207_4
DYEAR=2007
DGENRE=Eigen
TTITLE0=Tom Astor - Hallo, Guten Morgen Deutschland
TTITLE1=Tom Astor - Radwechsel
TTITLE2=Truck Stop - Ich möcht' so gern Dave Dudley hör'n - Album Version
TTITLE3=Truck Stop - Der wilde, wilde Westen - Album Version
TTITLE4=Truck Stop - Arizona, Arizona
TTITLE5=Truck Stop - Das Gibt's Doch Nur In Dallas - Album Version
TTITLE6=Truck Stop - Hannas Mann
TTITLE7=Truck Stop - Old Texas Town, Die Westernstadt - Album Version
TTITLE8=Truck Stop - Nein Danke, Ich Rauch' Nicht Mehr - Album Version
TTITLE9=Truck Stop - Angeln Entspannt
TTITLE10=Truck Stop - Gelbe Säcke, Blaue Engel
EXTD=
EXTT0=
EXTT1=
EXTT2=
EXTT3=
EXTT4=
EXTT5=
EXTT6=
EXTT7=
EXTT8=
EXTT9=
EXTT10=
PLAYORDER=
